<mxfile host="app.diagrams.net" modified="2024-07-04T17:02:54.032Z" agent="Mozilla/5.0 (Windows NT 10.0; Win64; x64) AppleWebKit/537.36 (KHTML, like Gecko) Chrome/123.0.0.0 Safari/537.36 OPR/109.0.0.0" etag="IVPMmLcCh0qJpyAecQn8" version="24.6.4" type="device">
  <diagram name="Page-1" id="6Mwis5wIAry53YKTvGpG">
    <mxGraphModel dx="2033" dy="1118" grid="1" gridSize="10" guides="1" tooltips="1" connect="1" arrows="1" fold="1" page="1" pageScale="1" pageWidth="827" pageHeight="1169" math="0" shadow="0">
      <root>
        <mxCell id="0" />
        <mxCell id="1" parent="0" />
        <mxCell id="8oeR2qC25uM0qVfBxgct-1" style="edgeStyle=orthogonalEdgeStyle;rounded=0;orthogonalLoop=1;jettySize=auto;html=1;entryX=0.5;entryY=0;entryDx=0;entryDy=0;" edge="1" parent="1" source="8oeR2qC25uM0qVfBxgct-2" target="8oeR2qC25uM0qVfBxgct-20">
          <mxGeometry relative="1" as="geometry" />
        </mxCell>
        <mxCell id="8oeR2qC25uM0qVfBxgct-2" value="EVALUATION DE LA MENACE" style="swimlane;whiteSpace=wrap;html=1;" vertex="1" parent="1">
          <mxGeometry x="42" y="140" width="744" height="450" as="geometry" />
        </mxCell>
        <mxCell id="8oeR2qC25uM0qVfBxgct-3" value="- Compte VIP ? &lt;br&gt;- A privilège ? &lt;br&gt;- Compte de service ?" style="shape=document;whiteSpace=wrap;html=1;boundedLbl=1;" vertex="1" parent="8oeR2qC25uM0qVfBxgct-2">
          <mxGeometry x="20" y="65" width="150" height="80" as="geometry" />
        </mxCell>
        <mxCell id="8oeR2qC25uM0qVfBxgct-4" value="Vulnérabilités pouvant avoir été exploitées pour compromettre le système" style="shape=document;whiteSpace=wrap;html=1;boundedLbl=1;" vertex="1" parent="8oeR2qC25uM0qVfBxgct-2">
          <mxGeometry x="20" y="300" width="138" height="105" as="geometry" />
        </mxCell>
        <mxCell id="8oeR2qC25uM0qVfBxgct-40" style="edgeStyle=orthogonalEdgeStyle;rounded=0;orthogonalLoop=1;jettySize=auto;html=1;entryX=1;entryY=0.5;entryDx=0;entryDy=0;" edge="1" parent="8oeR2qC25uM0qVfBxgct-2" source="8oeR2qC25uM0qVfBxgct-5" target="8oeR2qC25uM0qVfBxgct-10">
          <mxGeometry relative="1" as="geometry" />
        </mxCell>
        <mxCell id="8oeR2qC25uM0qVfBxgct-5" value="- Contrôle md5/sha256&lt;br&gt;- Rapport sandbox&lt;br&gt;- Analyse Yara (Thor APT Scanner)&lt;br&gt;- Vérification de la signature&lt;br&gt;- Contrôler si le fichier est présents ailleurs&lt;br&gt;- Vérifier intégrité du fichier (comparer à la ressource officielle)" style="shape=document;whiteSpace=wrap;html=1;boundedLbl=1;" vertex="1" parent="8oeR2qC25uM0qVfBxgct-2">
          <mxGeometry x="568" y="75" width="160" height="255" as="geometry" />
        </mxCell>
        <mxCell id="8oeR2qC25uM0qVfBxgct-8" value="Identifier type de menace suspectée (ver, cheval de troie, etc.)" style="rounded=0;whiteSpace=wrap;html=1;" vertex="1" parent="8oeR2qC25uM0qVfBxgct-2">
          <mxGeometry x="398" y="75" width="120" height="60" as="geometry" />
        </mxCell>
        <mxCell id="8oeR2qC25uM0qVfBxgct-9" value="Poste partagé ?" style="shape=document;whiteSpace=wrap;html=1;boundedLbl=1;" vertex="1" parent="8oeR2qC25uM0qVfBxgct-2">
          <mxGeometry x="20" y="180" width="120" height="80" as="geometry" />
        </mxCell>
        <mxCell id="8oeR2qC25uM0qVfBxgct-10" value="Récupération du fichier" style="rounded=0;whiteSpace=wrap;html=1;" vertex="1" parent="8oeR2qC25uM0qVfBxgct-2">
          <mxGeometry x="398" y="172.5" width="120" height="60" as="geometry" />
        </mxCell>
        <mxCell id="8oeR2qC25uM0qVfBxgct-11" value="Identifier les vulnérabilités du poste" style="rounded=0;whiteSpace=wrap;html=1;" vertex="1" parent="8oeR2qC25uM0qVfBxgct-2">
          <mxGeometry x="228" y="322.5" width="120" height="60" as="geometry" />
        </mxCell>
        <mxCell id="8oeR2qC25uM0qVfBxgct-12" style="edgeStyle=orthogonalEdgeStyle;rounded=0;orthogonalLoop=1;jettySize=auto;html=1;entryX=0;entryY=0.5;entryDx=0;entryDy=0;" edge="1" parent="8oeR2qC25uM0qVfBxgct-2" source="8oeR2qC25uM0qVfBxgct-4" target="8oeR2qC25uM0qVfBxgct-11">
          <mxGeometry relative="1" as="geometry" />
        </mxCell>
        <mxCell id="8oeR2qC25uM0qVfBxgct-13" value="Identifier le poste lié à cet utilisateur" style="rounded=0;whiteSpace=wrap;html=1;" vertex="1" parent="8oeR2qC25uM0qVfBxgct-2">
          <mxGeometry x="228" y="190" width="120" height="60" as="geometry" />
        </mxCell>
        <mxCell id="8oeR2qC25uM0qVfBxgct-14" value="" style="edgeStyle=orthogonalEdgeStyle;rounded=0;orthogonalLoop=1;jettySize=auto;html=1;" edge="1" parent="8oeR2qC25uM0qVfBxgct-2" source="8oeR2qC25uM0qVfBxgct-13" target="8oeR2qC25uM0qVfBxgct-11">
          <mxGeometry relative="1" as="geometry" />
        </mxCell>
        <mxCell id="8oeR2qC25uM0qVfBxgct-15" style="edgeStyle=orthogonalEdgeStyle;rounded=0;orthogonalLoop=1;jettySize=auto;html=1;entryX=0;entryY=0.5;entryDx=0;entryDy=0;" edge="1" parent="8oeR2qC25uM0qVfBxgct-2" source="8oeR2qC25uM0qVfBxgct-9" target="8oeR2qC25uM0qVfBxgct-13">
          <mxGeometry relative="1" as="geometry" />
        </mxCell>
        <mxCell id="8oeR2qC25uM0qVfBxgct-16" value="Identifier le compte&amp;nbsp; à l&#39;origine de l&#39;alerte" style="rounded=0;whiteSpace=wrap;html=1;" vertex="1" parent="8oeR2qC25uM0qVfBxgct-2">
          <mxGeometry x="228" y="75" width="120" height="60" as="geometry" />
        </mxCell>
        <mxCell id="8oeR2qC25uM0qVfBxgct-17" value="" style="edgeStyle=orthogonalEdgeStyle;rounded=0;orthogonalLoop=1;jettySize=auto;html=1;" edge="1" parent="8oeR2qC25uM0qVfBxgct-2" source="8oeR2qC25uM0qVfBxgct-16" target="8oeR2qC25uM0qVfBxgct-13">
          <mxGeometry relative="1" as="geometry" />
        </mxCell>
        <mxCell id="8oeR2qC25uM0qVfBxgct-18" style="edgeStyle=orthogonalEdgeStyle;rounded=0;orthogonalLoop=1;jettySize=auto;html=1;entryX=0;entryY=0.5;entryDx=0;entryDy=0;" edge="1" parent="8oeR2qC25uM0qVfBxgct-2" source="8oeR2qC25uM0qVfBxgct-3" target="8oeR2qC25uM0qVfBxgct-16">
          <mxGeometry relative="1" as="geometry" />
        </mxCell>
        <mxCell id="8oeR2qC25uM0qVfBxgct-41" value="&amp;nbsp;Identifier le vecteur d&#39;entrée" style="rounded=0;whiteSpace=wrap;html=1;" vertex="1" parent="8oeR2qC25uM0qVfBxgct-2">
          <mxGeometry x="398" y="323" width="120" height="60" as="geometry" />
        </mxCell>
        <mxCell id="8oeR2qC25uM0qVfBxgct-19" style="edgeStyle=orthogonalEdgeStyle;rounded=0;orthogonalLoop=1;jettySize=auto;html=1;entryX=0.5;entryY=0;entryDx=0;entryDy=0;" edge="1" parent="1" source="8oeR2qC25uM0qVfBxgct-20" target="8oeR2qC25uM0qVfBxgct-26">
          <mxGeometry relative="1" as="geometry" />
        </mxCell>
        <mxCell id="8oeR2qC25uM0qVfBxgct-20" value="LEVE DE DOUTE" style="swimlane;whiteSpace=wrap;html=1;" vertex="1" parent="1">
          <mxGeometry x="40" y="650" width="748" height="180" as="geometry" />
        </mxCell>
        <mxCell id="8oeR2qC25uM0qVfBxgct-21" value="Known issue ?" style="rhombus;whiteSpace=wrap;html=1;" vertex="1" parent="8oeR2qC25uM0qVfBxgct-20">
          <mxGeometry x="58" y="60" width="92" height="90" as="geometry" />
        </mxCell>
        <mxCell id="8oeR2qC25uM0qVfBxgct-22" value="Cas précédent ?" style="rhombus;whiteSpace=wrap;html=1;" vertex="1" parent="8oeR2qC25uM0qVfBxgct-20">
          <mxGeometry x="214" y="60" width="92" height="90" as="geometry" />
        </mxCell>
        <mxCell id="8oeR2qC25uM0qVfBxgct-23" value="Fichier légitime" style="rhombus;whiteSpace=wrap;html=1;" vertex="1" parent="8oeR2qC25uM0qVfBxgct-20">
          <mxGeometry x="430" y="52.5" width="110" height="105" as="geometry" />
        </mxCell>
        <mxCell id="8oeR2qC25uM0qVfBxgct-24" value="Confirmation utilisateur" style="rhombus;whiteSpace=wrap;html=1;" vertex="1" parent="8oeR2qC25uM0qVfBxgct-20">
          <mxGeometry x="590" y="52.5" width="110" height="105" as="geometry" />
        </mxCell>
        <mxCell id="8oeR2qC25uM0qVfBxgct-26" value="ACTIONS / RECOMMANDATIONS" style="swimlane;whiteSpace=wrap;html=1;" vertex="1" parent="1">
          <mxGeometry x="40" y="880" width="748" height="240" as="geometry" />
        </mxCell>
        <mxCell id="8oeR2qC25uM0qVfBxgct-27" value="Isolation du poste" style="shape=process;whiteSpace=wrap;html=1;backgroundOutline=1;" vertex="1" parent="8oeR2qC25uM0qVfBxgct-26">
          <mxGeometry x="44" y="50" width="120" height="60" as="geometry" />
        </mxCell>
        <mxCell id="8oeR2qC25uM0qVfBxgct-28" value="Blocage du compte" style="shape=process;whiteSpace=wrap;html=1;backgroundOutline=1;" vertex="1" parent="8oeR2qC25uM0qVfBxgct-26">
          <mxGeometry x="40" y="140" width="120" height="60" as="geometry" />
        </mxCell>
        <mxCell id="8oeR2qC25uM0qVfBxgct-29" value="" style="edgeStyle=orthogonalEdgeStyle;rounded=0;orthogonalLoop=1;jettySize=auto;html=1;" edge="1" parent="8oeR2qC25uM0qVfBxgct-26" source="8oeR2qC25uM0qVfBxgct-30" target="8oeR2qC25uM0qVfBxgct-35">
          <mxGeometry relative="1" as="geometry" />
        </mxCell>
        <mxCell id="8oeR2qC25uM0qVfBxgct-44" style="edgeStyle=orthogonalEdgeStyle;rounded=0;orthogonalLoop=1;jettySize=auto;html=1;entryX=0;entryY=0.5;entryDx=0;entryDy=0;" edge="1" parent="8oeR2qC25uM0qVfBxgct-26" source="8oeR2qC25uM0qVfBxgct-30" target="8oeR2qC25uM0qVfBxgct-43">
          <mxGeometry relative="1" as="geometry" />
        </mxCell>
        <mxCell id="8oeR2qC25uM0qVfBxgct-30" value="Ajout de la source en allow / block list" style="shape=process;whiteSpace=wrap;html=1;backgroundOutline=1;" vertex="1" parent="8oeR2qC25uM0qVfBxgct-26">
          <mxGeometry x="410" y="50" width="120" height="60" as="geometry" />
        </mxCell>
        <mxCell id="8oeR2qC25uM0qVfBxgct-31" value="" style="edgeStyle=orthogonalEdgeStyle;rounded=0;orthogonalLoop=1;jettySize=auto;html=1;" edge="1" parent="8oeR2qC25uM0qVfBxgct-26" source="8oeR2qC25uM0qVfBxgct-32" target="8oeR2qC25uM0qVfBxgct-34">
          <mxGeometry relative="1" as="geometry" />
        </mxCell>
        <mxCell id="8oeR2qC25uM0qVfBxgct-32" value="Extraction des preuves" style="shape=process;whiteSpace=wrap;html=1;backgroundOutline=1;" vertex="1" parent="8oeR2qC25uM0qVfBxgct-26">
          <mxGeometry x="220" y="50" width="120" height="60" as="geometry" />
        </mxCell>
        <mxCell id="8oeR2qC25uM0qVfBxgct-34" value="Analyse des journaux" style="shape=process;whiteSpace=wrap;html=1;backgroundOutline=1;" vertex="1" parent="8oeR2qC25uM0qVfBxgct-26">
          <mxGeometry x="220" y="140" width="120" height="60" as="geometry" />
        </mxCell>
        <mxCell id="8oeR2qC25uM0qVfBxgct-35" value="Si block list : contrôler (passé et futur)" style="shape=process;whiteSpace=wrap;html=1;backgroundOutline=1;" vertex="1" parent="8oeR2qC25uM0qVfBxgct-26">
          <mxGeometry x="410" y="140" width="120" height="60" as="geometry" />
        </mxCell>
        <mxCell id="8oeR2qC25uM0qVfBxgct-43" value="Contrôler présence de doublon ?" style="shape=process;whiteSpace=wrap;html=1;backgroundOutline=1;" vertex="1" parent="8oeR2qC25uM0qVfBxgct-26">
          <mxGeometry x="590" y="50" width="120" height="60" as="geometry" />
        </mxCell>
        <mxCell id="8oeR2qC25uM0qVfBxgct-33" value="Dépôt de plainte ?" style="shape=process;whiteSpace=wrap;html=1;backgroundOutline=1;" vertex="1" parent="8oeR2qC25uM0qVfBxgct-26">
          <mxGeometry x="590" y="140" width="120" height="60" as="geometry" />
        </mxCell>
        <mxCell id="8oeR2qC25uM0qVfBxgct-36" value="Playbook réalisé par Augmented Security Force - licence&amp;nbsp;CC0 1.0 UNIVERSAL" style="text;html=1;align=center;verticalAlign=middle;whiteSpace=wrap;rounded=0;" vertex="1" parent="1">
          <mxGeometry x="40" y="1120" width="750" height="30" as="geometry" />
        </mxCell>
        <mxCell id="8oeR2qC25uM0qVfBxgct-37" value="Playbook réalisé par Augmented Security Force - licence&amp;nbsp;CC0 1.0 UNIVERSAL" style="text;html=1;align=center;verticalAlign=middle;whiteSpace=wrap;rounded=0;" vertex="1" parent="1">
          <mxGeometry x="40" y="610" width="350" height="30" as="geometry" />
        </mxCell>
        <mxCell id="8oeR2qC25uM0qVfBxgct-38" value="Playbook réalisé par Augmented Security Force - licence&amp;nbsp;CC0 1.0 UNIVERSAL" style="text;html=1;align=center;verticalAlign=middle;whiteSpace=wrap;rounded=0;" vertex="1" parent="1">
          <mxGeometry x="40" y="840" width="350" height="30" as="geometry" />
        </mxCell>
        <mxCell id="8oeR2qC25uM0qVfBxgct-39" value="&lt;h1 style=&quot;margin-top: 0px;&quot;&gt;Malware&lt;/h1&gt;&lt;p style=&quot;text-align: justify;&quot;&gt;Une alerte &quot;logiciel malveillant&quot; est une notification générée par un système de sécurité lorsqu&#39;il détecte un logiciel ou un code malveillant qui s&#39;est infiltré dans un appareil ou un réseau, constituant ainsi une menace potentielle pour la sécurité.&lt;/p&gt;" style="text;html=1;whiteSpace=wrap;overflow=hidden;rounded=0;" vertex="1" parent="1">
          <mxGeometry x="42" y="30" width="750" height="90" as="geometry" />
        </mxCell>
      </root>
    </mxGraphModel>
  </diagram>
</mxfile>
